
<svg
  xmlns="http://www.w3.org/2000/svg"
  width="300"
  height="55"
  className="mdl-js"
  version="1"
  viewBox="0 0 224.88 41.25"
>
  <defs>
    <clipPath id="id1">
      <path d="M210 15h12.813v8H210zm0 0"></path>
    </clipPath>
  </defs>
  <path
    fill="#1266dd"
    d="M1.172-15.703h8.047c1.351 0 2.375.195 3.062.578.696.387 1.164.96 1.406 1.719.239.761.36 1.82.36 3.172 0 1.273-.117 2.289-.344 3.046-.219.762-.68 1.356-1.375 1.782-.687.43-1.726.64-3.11.64H6.5V0H1.172zm6.047 7.219c.468 0 .797-.036.984-.11.188-.07.313-.219.375-.437.063-.219.094-.617.094-1.203 0-.57-.031-.973-.094-1.204-.062-.238-.187-.39-.375-.453-.18-.062-.508-.093-.984-.093H6.5v3.5zm0 0"
    transform="translate(1.949 23.24)"
  ></path>
  <path
    fill="#1266dd"
    d="M9.406 0v-5.734H6.5V0H1.172v-15.703H6.5V-10h2.906v-5.703h5.344V0zm0 0"
    transform="translate(17.376 23.24)"
  ></path>
  <path
    fill="#1266dd"
    d="M7.922.188C5.64.188 4.02-.04 3.062-.5c-.949-.469-1.539-1.207-1.765-2.219-.23-1.02-.344-2.734-.344-5.14 0-2.395.113-4.098.344-5.11.226-1.02.816-1.758 1.766-2.219.957-.468 2.578-.703 4.859-.703s3.898.235 4.86.704c.956.46 1.55 1.199 1.78 2.218.227 1.012.344 2.715.344 5.11 0 2.406-.117 4.12-.344 5.14-.23 1.012-.824 1.75-1.78 2.219-.962.46-2.579.688-4.86.688zm0-3.813c.57 0 .957-.066 1.156-.203.195-.145.32-.469.375-.969.063-.508.094-1.531.094-3.062 0-1.52-.031-2.536-.094-3.047-.055-.508-.18-.832-.375-.969-.2-.133-.586-.203-1.156-.203-.586 0-.977.07-1.172.203-.2.137-.32.46-.36.969-.042.5-.062 1.515-.062 3.047 0 1.543.02 2.562.063 3.062.039.5.16.824.359.969.195.137.586.203 1.172.203zm0 0"
    transform="translate(34.195 23.24)"
  ></path>
  <path
    fill="#1266dd"
    d="M10.016 0L6.39-7.328H6.25V0H1.172v-15.703h5.453l3.047 6.062h.172v-6.062h5.078V0zm0 0"
    transform="translate(50.969 23.24)"
  ></path>
  <path
    fill="#1266dd"
    d="M7.86-6v-3.453h6.156v9.156c-.868.137-1.852.25-2.954.344C9.97.14 9 .187 8.156.187 6.145.188 4.633-.039 3.625-.5c-1-.469-1.7-1.258-2.094-2.375C1.145-4 .953-5.66.953-7.859c0-2.188.192-3.836.578-4.954.395-1.124 1.094-1.914 2.094-2.374 1.008-.47 2.52-.704 4.531-.704.832 0 1.785.055 2.86.157 1.082.093 2.062.226 2.937.39v3.563c-.719-.07-1.48-.14-2.281-.203a24.998 24.998 0 00-1.813-.094c-1.304 0-2.183.07-2.64.203-.45.137-.735.465-.86.984-.117.524-.171 1.532-.171 3.032 0 1.312.039 2.257.125 2.828.093.574.285.968.578 1.187.3.211.796.313 1.484.313l.984-.031V-6zm0 0"
    transform="translate(67.97 23.24)"
  ></path>
  <path
    fill="#1266dd"
    d="M4.125 0v-11.688H.297v-4.015h13.031v4.015h-3.86V0zm0 0"
    transform="translate(83.99 23.24)"
  ></path>
  <path
    fill="#1266dd"
    d="M9.156 0L7.578-5.234H6.5V0H1.172v-15.703h8.25c1.375 0 2.41.187 3.11.562a2.797 2.797 0 011.405 1.657c.239.73.36 1.742.36 3.03 0 1.22-.125 2.196-.375 2.923-.242.718-.719 1.277-1.438 1.672L14.641 0zM7.47-8.766c.468 0 .797-.03.984-.093a.57.57 0 00.39-.391c.071-.207.11-.578.11-1.11 0-.55-.027-.925-.078-1.124a.503.503 0 00-.36-.391c-.199-.07-.558-.11-1.078-.11H6.5v3.22zm0 0"
    transform="translate(98.528 23.24)"
  ></path>
  <path
    fill="#1266dd"
    d="M7.922.188C5.64.188 4.02-.04 3.062-.5c-.949-.469-1.539-1.207-1.765-2.219-.23-1.02-.344-2.734-.344-5.14 0-2.395.113-4.098.344-5.11.226-1.02.816-1.758 1.766-2.219.957-.468 2.578-.703 4.859-.703s3.898.235 4.86.704c.956.46 1.55 1.199 1.78 2.218.227 1.012.344 2.715.344 5.11 0 2.406-.117 4.12-.344 5.14-.23 1.012-.824 1.75-1.78 2.219-.962.46-2.579.688-4.86.688zm0-3.813c.57 0 .957-.066 1.156-.203.195-.145.32-.469.375-.969.063-.508.094-1.531.094-3.062 0-1.52-.031-2.536-.094-3.047-.055-.508-.18-.832-.375-.969-.2-.133-.586-.203-1.156-.203-.586 0-.977.07-1.172.203-.2.137-.32.46-.36.969-.042.5-.062 1.515-.062 3.047 0 1.543.02 2.562.063 3.062.039.5.16.824.359.969.195.137.586.203 1.172.203zm0 0"
    transform="translate(114.617 23.24)"
  ></path>
  <path
    d="M.688-6.219h1.03V0H.689zM1.813-3.28L4.108-6.22h1.22L3-3.297 5.328 0H4.11zm0 0"
    transform="translate(1.949 37.41)"
  ></path>
  <path
    d="M2.64.094c-.511 0-.945-.102-1.296-.313a2.084 2.084 0 01-.813-.844A2.45 2.45 0 01.25-2.234c0-.414.082-.79.25-1.125.176-.344.426-.614.75-.813a2.144 2.144 0 011.156-.312c.395 0 .735.086 1.016.25.289.156.508.382.656.671.156.282.234.606.234.97 0 .187-.023.37-.062.546H1.281c.051.461.207.793.469 1 .27.2.602.297 1 .297.477 0 .91-.11 1.297-.328l.078.828c-.46.23-.953.344-1.484.344zm.657-2.813c0-.258-.074-.476-.219-.656-.148-.176-.371-.266-.672-.266-.574 0-.933.309-1.078.922zM1.328-5.594l1.156-.984 1.157.984v.64l-1.157-.734-1.156.735zm0 0"
    transform="translate(8.206 37.41)"
  ></path>
  <path
    d="M2.719-4.484c.57 0 1 .183 1.281.546.29.356.438.852.438 1.485V0h-.985v-2.39c0-.438-.078-.755-.234-.954-.149-.195-.399-.297-.75-.297-.406 0-.727.141-.953.422V0H.53v-4.406h.875l.032.375c.375-.301.8-.453 1.28-.453zm0 0"
    transform="translate(13.655 37.41)"
  ></path>
  <path
    d="M2.703-4.484c.563 0 .985.183 1.266.546.281.368.422.86.422 1.485V0h-1v-2.36c0-.445-.075-.769-.22-.968-.148-.207-.386-.313-.718-.313-.387 0-.7.153-.937.454V0h-1v-6.656h1v2.593c.175-.132.359-.238.546-.312.188-.07.399-.11.641-.11zm0 0"
    transform="translate(19.468 37.41)"
  ></path>
  <path
    d="M1.984.094c-.386 0-.68-.11-.875-.328a1.14 1.14 0 01-.296-.797V-3.61H.155l.078-.797h.579v-1l1-.11v1.11h1.03v.797h-1.03v2.125c0 .261.015.437.046.53a.282.282 0 00.188.188c.094.032.27.047.531.047h.266L2.75.094zm0 0"
    transform="translate(28.103 37.41)"
  ></path>
  <path
    d="M2.703-4.484c.563 0 .985.183 1.266.546.281.368.422.86.422 1.485V0h-1v-2.36c0-.445-.075-.769-.22-.968-.148-.207-.386-.313-.718-.313-.387 0-.7.153-.937.454V0h-1v-6.656h1v2.593c.175-.132.359-.238.546-.312.188-.07.399-.11.641-.11zm0 0"
    transform="translate(32.017 37.41)"
  ></path>
  <path
    d="M2.5.094c-.46 0-.86-.102-1.203-.313a2.179 2.179 0 01-.781-.828A2.504 2.504 0 01.25-2.203c0-.414.086-.797.266-1.14.187-.352.445-.63.78-.829A2.281 2.281 0 012.5-4.484c.457 0 .852.105 1.188.312.343.2.601.477.78.828.177.344.266.727.266 1.14 0 .419-.09.806-.265 1.157-.18.344-.438.621-.782.828-.335.211-.73.313-1.187.313zm0-.844c.383 0 .68-.129.89-.39.22-.258.329-.614.329-1.063 0-.438-.11-.785-.328-1.047-.211-.27-.508-.406-.891-.406-.387 0-.688.136-.906.406-.211.262-.313.61-.313 1.047 0 .45.102.805.313 1.062.218.262.52.391.906.391zM1.344-5.594L2.5-6.578l1.156.984v.64L2.5-5.687l-1.156.735zm0 0"
    transform="translate(37.768 37.41)"
  ></path>
  <path
    d="M2.719-4.484c.57 0 1 .183 1.281.546.29.356.438.852.438 1.485V0h-.985v-2.39c0-.438-.078-.755-.234-.954-.149-.195-.399-.297-.75-.297-.406 0-.727.141-.953.422V0H.53v-4.406h.875l.032.375c.375-.301.8-.453 1.28-.453zm0 0"
    transform="translate(43.652 37.41)"
  ></path>
  <path
    d="M2.281 2.234c-.625 0-1.125-.117-1.5-.343C.406 1.66.22 1.348.22.953.219.516.46.164.953-.094.68-.238.547-.438.547-.688c0-.28.156-.488.469-.625a1.57 1.57 0 01-.532-.609 1.917 1.917 0 01-.171-.828c0-.32.066-.613.203-.875.144-.27.351-.477.625-.625.27-.156.593-.234.968-.234.395 0 .739.101 1.032.296.113-.062.254-.113.421-.156.176-.039.368-.062.579-.062h.203l-.078.625h-.329c-.117 0-.23.011-.343.031.207.281.312.617.312 1 0 .324-.074.621-.219.89a1.506 1.506 0 01-.624.626c-.274.156-.59.234-.954.234-.168 0-.34-.02-.515-.063-.094.032-.14.09-.14.172 0 .075.046.137.14.188.093.043.238.074.437.094l.89.14C3.93-.32 4.439.098 4.439.797c0 .445-.196.797-.579 1.047-.375.258-.902.39-1.578.39zM2.11-1.75c.282 0 .493-.086.641-.266.156-.187.234-.43.234-.734 0-.313-.078-.555-.234-.734-.148-.176-.36-.266-.64-.266-.294 0-.516.094-.672.281-.149.18-.22.418-.22.719 0 .305.071.547.22.734.156.18.378.266.671.266zm.22 3.188c.788 0 1.187-.196 1.187-.579a.441.441 0 00-.204-.375C3.188.398 2.978.336 2.688.297L1.625.125a1.073 1.073 0 00-.406.25.593.593 0 00-.14.39c0 .227.109.395.327.5.219.114.524.173.922.173zm0 0"
    transform="translate(49.465 37.41)"
  ></path>
  <path
    d="M1.984.094c-.386 0-.68-.11-.875-.328a1.14 1.14 0 01-.296-.797V-3.61H.155l.078-.797h.579v-1l1-.11v1.11h1.03v.797h-1.03v2.125c0 .261.015.437.046.53a.282.282 0 00.188.188c.094.032.27.047.531.047h.266L2.75.094zm0 0"
    transform="translate(57.675 37.41)"
  ></path>
  <path
    d="M.531-6.219h.985v1.032H.53zm0 1.813h.985V0H.53zm0 0"
    transform="translate(61.589 37.41)"
  ></path>
  <path
    d="M2.719-4.484c.57 0 1 .183 1.281.546.29.356.438.852.438 1.485V0h-.985v-2.39c0-.438-.078-.755-.234-.954-.149-.195-.399-.297-.75-.297-.406 0-.727.141-.953.422V0H.53v-4.406h.875l.032.375c.375-.301.8-.453 1.28-.453zm0 0"
    transform="translate(64.517 37.41)"
  ></path>
  <path
    d="M2.797-4.484c.414 0 .77.105 1.062.312.29.2.516.469.672.813.157.343.235.73.235 1.156 0 .43-.079.82-.235 1.172a1.892 1.892 0 01-.672.828c-.293.2-.648.297-1.062.297a2.29 2.29 0 01-.735-.11c-.199-.07-.382-.187-.546-.343v2.5H.53v-6.547h.781l.11.468c.187-.175.39-.312.61-.406.226-.093.484-.14.765-.14zM2.64-.75a.963.963 0 00.812-.39c.195-.258.297-.614.297-1.063 0-.438-.102-.785-.297-1.047a.974.974 0 00-.812-.39c-.375 0-.668.124-.875.374-.2.25-.297.606-.297 1.063 0 .46.097.82.297 1.078.207.25.5.375.875.375zm0 0"
    transform="translate(73.215 37.41)"
  ></path>
  <path
    d="M2.703-4.484c.563 0 .985.183 1.266.546.281.368.422.86.422 1.485V0h-1v-2.36c0-.445-.075-.769-.22-.968-.148-.207-.386-.313-.718-.313-.387 0-.7.153-.937.454V0h-1v-6.656h1v2.593c.175-.132.359-.238.546-.312.188-.07.399-.11.641-.11zm0 0"
    transform="translate(79.134 37.41)"
  ></path>
  <path
    d="M2.5.094c-.46 0-.86-.102-1.203-.313a2.179 2.179 0 01-.781-.828A2.504 2.504 0 01.25-2.203c0-.414.086-.797.266-1.14.187-.352.445-.63.78-.829A2.281 2.281 0 012.5-4.484c.457 0 .852.105 1.188.312.343.2.601.477.78.828.177.344.266.727.266 1.14 0 .419-.09.806-.265 1.157-.18.344-.438.621-.782.828-.335.211-.73.313-1.187.313zm0-.844c.383 0 .68-.129.89-.39.22-.258.329-.614.329-1.063 0-.438-.11-.785-.328-1.047-.211-.27-.508-.406-.891-.406-.387 0-.688.136-.906.406-.211.262-.313.61-.313 1.047 0 .45.102.805.313 1.062.218.262.52.391.906.391zm-.86-4.984v-.97l1.72.985v.64zm0 0"
    transform="translate(84.885 37.41)"
  ></path>
  <path
    d="M2.719-4.484c.57 0 1 .183 1.281.546.29.356.438.852.438 1.485V0h-.985v-2.39c0-.438-.078-.755-.234-.954-.149-.195-.399-.297-.75-.297-.406 0-.727.141-.953.422V0H.53v-4.406h.875l.032.375c.375-.301.8-.453 1.28-.453zm0 0"
    transform="translate(90.77 37.41)"
  ></path>
  <path
    d="M2.281 2.234c-.625 0-1.125-.117-1.5-.343C.406 1.66.22 1.348.22.953.219.516.46.164.953-.094.68-.238.547-.438.547-.688c0-.28.156-.488.469-.625a1.57 1.57 0 01-.532-.609 1.917 1.917 0 01-.171-.828c0-.32.066-.613.203-.875.144-.27.351-.477.625-.625.27-.156.593-.234.968-.234.395 0 .739.101 1.032.296.113-.062.254-.113.421-.156.176-.039.368-.062.579-.062h.203l-.078.625h-.329c-.117 0-.23.011-.343.031.207.281.312.617.312 1 0 .324-.074.621-.219.89a1.506 1.506 0 01-.624.626c-.274.156-.59.234-.954.234-.168 0-.34-.02-.515-.063-.094.032-.14.09-.14.172 0 .075.046.137.14.188.093.043.238.074.437.094l.89.14C3.93-.32 4.439.098 4.439.797c0 .445-.196.797-.579 1.047-.375.258-.902.39-1.578.39zM2.11-1.75c.282 0 .493-.086.641-.266.156-.187.234-.43.234-.734 0-.313-.078-.555-.234-.734-.148-.176-.36-.266-.64-.266-.294 0-.516.094-.672.281-.149.18-.22.418-.22.719 0 .305.071.547.22.734.156.18.378.266.671.266zm.22 3.188c.788 0 1.187-.196 1.187-.579a.441.441 0 00-.204-.375C3.188.398 2.978.336 2.688.297L1.625.125a1.073 1.073 0 00-.406.25.593.593 0 00-.14.39c0 .227.109.395.327.5.219.114.524.173.922.173zm0 0"
    transform="translate(96.582 37.41)"
  ></path>
  <path
    d="M1.984.094c-.386 0-.68-.11-.875-.328a1.14 1.14 0 01-.296-.797V-3.61H.155l.078-.797h.579v-1l1-.11v1.11h1.03v.797h-1.03v2.125c0 .261.015.437.046.53a.282.282 0 00.188.188c.094.032.27.047.531.047h.266L2.75.094zm0 0"
    transform="translate(104.792 37.41)"
  ></path>
  <path
    d="M.531-4.406h.89l.048.562c.164-.195.347-.351.547-.469a1.35 1.35 0 01.656-.171c.062 0 .125.007.187.015l-.078 1a1.613 1.613 0 00-.328-.031c-.2 0-.387.047-.562.14-.168.087-.29.188-.36.313V0h-1zm0 0"
    transform="translate(108.706 37.41)"
  ></path>
  <path
    d="M2.5.094c-.46 0-.86-.102-1.203-.313a2.179 2.179 0 01-.781-.828A2.504 2.504 0 01.25-2.203c0-.414.086-.797.266-1.14.187-.352.445-.63.78-.829A2.281 2.281 0 012.5-4.484c.457 0 .852.105 1.188.312.343.2.601.477.78.828.177.344.266.727.266 1.14 0 .419-.09.806-.265 1.157-.18.344-.438.621-.782.828-.335.211-.73.313-1.187.313zm0-.844c.383 0 .68-.129.89-.39.22-.258.329-.614.329-1.063 0-.438-.11-.785-.328-1.047-.211-.27-.508-.406-.891-.406-.387 0-.688.136-.906.406-.211.262-.313.61-.313 1.047 0 .45.102.805.313 1.062.218.262.52.391.906.391zM2.047.719h.906v.828h-.906zm0 0"
    transform="translate(112.477 37.41)"
  ></path>
  <path
    d="M1.781.094a3.282 3.282 0 01-1.5-.344l.094-.89c.457.304.91.452 1.36.452.25 0 .437-.039.562-.125a.404.404 0 00.187-.359.435.435 0 00-.203-.39c-.125-.094-.336-.192-.625-.297-.437-.145-.765-.313-.984-.5-.219-.196-.328-.473-.328-.829 0-.382.14-.695.422-.937.289-.238.695-.36 1.218-.36.477 0 .91.106 1.297.313l-.094.86c-.199-.133-.39-.239-.578-.313A1.505 1.505 0 002-3.75c-.219 0-.39.043-.516.125-.117.086-.171.21-.171.375 0 .117.03.215.093.297.07.074.164.137.282.187.125.055.316.125.578.22.394.148.695.32.906.515.207.187.312.46.312.812 0 .399-.14.715-.421.953-.282.243-.711.36-1.282.36zm0 0"
    transform="translate(121.246 37.41)"
  ></path>
  <path
    d="M2.5.094c-.46 0-.86-.102-1.203-.313a2.179 2.179 0 01-.781-.828A2.504 2.504 0 01.25-2.203c0-.414.086-.797.266-1.14.187-.352.445-.63.78-.829A2.281 2.281 0 012.5-4.484c.457 0 .852.105 1.188.312.343.2.601.477.78.828.177.344.266.727.266 1.14 0 .419-.09.806-.265 1.157-.18.344-.438.621-.782.828-.335.211-.73.313-1.187.313zm0-.844c.383 0 .68-.129.89-.39.22-.258.329-.614.329-1.063 0-.438-.11-.785-.328-1.047-.211-.27-.508-.406-.891-.406-.387 0-.688.136-.906.406-.211.262-.313.61-.313 1.047 0 .45.102.805.313 1.062.218.262.52.391.906.391zm1.266-6.5h.953l-.89 1.094h-.657zM1.344-5.453L2.5-6.25l1.156.797v.625L2.5-5.453l-1.156.625zm0 0"
    transform="translate(125.86 37.41)"
  ></path>
  <path
    d="M1.313-4.75c-.282.2-.56.336-.829.406L.36-5.25c.22-.05.446-.172.688-.36.25-.195.426-.398.531-.609h.75V0H1.313zm0 0"
    transform="translate(134.63 37.41)"
  ></path>
  <path
    d="M5.453-6.219L3.234 0h-1L.016-6.219h1.046l1.672 4.75 1.672-4.75zm0 0"
    transform="translate(141.534 37.41)"
  ></path>
  <path
    d="M.531-6.219h.985v1.032H.53zm0 1.813h.985V0H.53zm0 0"
    transform="translate(147.888 37.41)"
  ></path>
  <path
    d="M2.64.094c-.511 0-.945-.102-1.296-.313a2.084 2.084 0 01-.813-.844A2.45 2.45 0 01.25-2.234c0-.414.082-.79.25-1.125.176-.344.426-.614.75-.813a2.144 2.144 0 011.156-.312c.395 0 .735.086 1.016.25.289.156.508.382.656.671.156.282.234.606.234.97 0 .187-.023.37-.062.546H1.281c.051.461.207.793.469 1 .27.2.602.297 1 .297.477 0 .91-.11 1.297-.328l.078.828c-.46.23-.953.344-1.484.344zm.657-2.813c0-.258-.074-.476-.219-.656-.148-.176-.371-.266-.672-.266-.574 0-.933.309-1.078.922zM1.328-5.594l1.156-.984 1.157.984v.64l-1.157-.734-1.156.735zm.5 6.313h.906v.828h-.906zm0 0"
    transform="translate(150.817 37.41)"
  ></path>
  <path
    d="M1.984.094c-.386 0-.68-.11-.875-.328a1.14 1.14 0 01-.296-.797V-3.61H.155l.078-.797h.579v-1l1-.11v1.11h1.03v.797h-1.03v2.125c0 .261.015.437.046.53a.282.282 0 00.188.188c.094.032.27.047.531.047h.266L2.75.094zm0 0"
    transform="translate(156.266 37.41)"
  ></path>
  <path
    d="M.688-6.219h1.046l2.797 4.25v-4.25h1.047V0h-.86l-3-4.5V0H.689zm0 0"
    transform="translate(163.064 37.41)"
  ></path>
  <path
    d="M1.5.094c-.375 0-.688-.117-.938-.36C.313-.504.188-.82.188-1.219c0-.383.133-.691.407-.922.281-.226.61-.39.984-.484.383-.102.766-.16 1.14-.172 0-.3-.07-.515-.202-.64-.125-.126-.34-.188-.641-.188a1.77 1.77 0 00-.563.094c-.187.054-.398.14-.625.265l-.109-.812c.5-.27 1.02-.406 1.563-.406.539 0 .941.148 1.203.437.258.293.39.777.39 1.453V-1.5c0 .23.008.398.032.5.02.105.054.18.109.219.05.043.145.062.281.062h.125l-.125.813h-.265c-.282 0-.508-.047-.672-.14a.993.993 0 01-.375-.423c-.149.168-.34.305-.578.406A1.958 1.958 0 011.5.095zm.36-.781c.144 0 .296-.036.452-.11a1.25 1.25 0 00.422-.297v-1.031c-.46.023-.828.105-1.109.25-.273.137-.406.34-.406.61 0 .386.21.577.64.577zm0 0"
    transform="translate(170.218 37.41)"
  ></path>
  <path
    d="M5.531-4.484c.582 0 1.016.171 1.297.515.29.336.438.824.438 1.469V0h-1v-2.453c0-.414-.075-.719-.22-.906-.136-.188-.359-.282-.671-.282-.355 0-.61.106-.766.313-.148.21-.218.492-.218.844V0h-.985v-2.39c0-.446-.078-.766-.234-.954-.149-.195-.375-.297-.688-.297-.418 0-.742.149-.968.438V0H.53v-4.406h.813l.062.39a2.082 2.082 0 011.328-.468c.602 0 1.047.234 1.329.703.144-.227.343-.399.593-.516.258-.125.551-.187.875-.187zm0 0"
    transform="translate(175.463 37.41)"
  ></path>
  <path
    fill="#e4012b"
    d="M3.86 0v-14.89L.155-13.438v-5.391l6.047-2.969h5.078V0zm0 0"
    transform="translate(132.702 23.308)"
  ></path>
  <path
    fill="#e4012b"
    d="M8.625-6.625a1.82 1.82 0 00-.172.563c-.023.199-.031.421-.031.671h9.61V0H1.358v-3.297c0-1.851.055-3.25.172-4.187.125-.946.414-1.758.875-2.438.469-.676 1.219-1.223 2.25-1.64l2.828-1.141c1.008-.406 1.547-.617 1.61-.64.508-.208.863-.38 1.062-.516.196-.133.32-.301.375-.5.051-.207.078-.555.078-1.047 0-.414-.07-.719-.203-.906-.136-.196-.367-.32-.687-.375-.313-.051-.828-.079-1.547-.079-1.461 0-3.578.164-6.36.485v-5.016c1.094-.226 2.395-.41 3.907-.547a47.892 47.892 0 014.172-.203c1.687 0 3.109.152 4.265.453 1.164.305 2.102.918 2.813 1.844.707.918 1.062 2.25 1.062 4 0 1.969-.297 3.46-.89 4.469-.594 1.011-1.418 1.71-2.47 2.094l-2.655 1.015-2.313.89c-.324.126-.57.235-.734.329a.801.801 0 00-.344.328zm0 0"
    transform="translate(146.833 23.308)"
  ></path>
  <path
    fill="#e4012b"
    d="M8.813.25C7.707.25 6.46.18 5.078.047A37.444 37.444 0 011.422-.47v-4.953c2.644.262 4.863.39 6.656.39.8 0 1.36-.023 1.672-.077.32-.063.54-.196.656-.407.114-.207.172-.578.172-1.109 0-.57-.055-.984-.156-1.234a.761.761 0 00-.547-.47c-.25-.062-.68-.093-1.281-.093h-3.39v-5.172h3.39c.601 0 1.023-.035 1.265-.11.25-.07.407-.206.47-.405.062-.207.093-.57.093-1.094 0-.531-.055-.895-.156-1.094-.106-.207-.325-.336-.657-.39-.324-.051-.937-.079-1.843-.079-.907 0-1.95.043-3.125.125a60.12 60.12 0 00-3.094.297v-4.984a38.058 38.058 0 013.61-.516 38.834 38.834 0 013.687-.203c2.258 0 4.039.219 5.344.656 1.312.43 2.25 1.055 2.812 1.875.563.825.844 1.891.844 3.203 0 1.543-.309 2.704-.922 3.485-.617.781-1.578 1.328-2.89 1.64v.126c.937.242 1.679.539 2.234.89.562.356.988.875 1.28 1.563.302.687.454 1.617.454 2.78 0 1.356-.262 2.47-.781 3.345-.512.875-1.438 1.554-2.782 2.03-1.343.47-3.218.704-5.624.704zm0 0"
    transform="translate(167.554 23.308)"
  ></path>
  <path
    fill="#aaa"
    d="M.844-2.125h2.125V0H.844zm0 0"
    transform="translate(187.25 22.969)"
  ></path>
  <path
    fill="#aaa"
    d="M4.516.125c-.805 0-1.5-.16-2.094-.484a3.259 3.259 0 01-1.344-1.375C.766-2.328.61-3.024.61-3.828c0-.8.16-1.504.485-2.11.332-.613.8-1.085 1.406-1.421.602-.344 1.3-.516 2.094-.516.539 0 1.066.09 1.578.266.52.168.93.402 1.234.703l-.531 1.343a3.816 3.816 0 00-1.031-.593 2.935 2.935 0 00-1.078-.219c-.7 0-1.243.219-1.625.656-.387.43-.579 1.047-.579 1.86 0 .812.188 1.433.563 1.859.383.418.93.625 1.64.625.352 0 .712-.066 1.079-.203a3.982 3.982 0 001.031-.61l.531 1.344c-.324.305-.746.543-1.265.719a5.392 5.392 0 01-1.625.25zm0 0"
    transform="translate(191.673 22.969)"
  ></path>
  <path
    fill="#aaa"
    d="M4.516.125c-.782 0-1.47-.16-2.063-.484A3.302 3.302 0 011.078-1.75C.766-2.352.61-3.063.61-3.875c0-.813.157-1.52.47-2.125a3.346 3.346 0 011.374-1.39c.594-.32 1.281-.485 2.063-.485.77 0 1.445.164 2.03.484.595.325 1.048.79 1.36 1.391.32.605.485 1.313.485 2.125 0 .813-.164 1.523-.485 2.125a3.223 3.223 0 01-1.36 1.39c-.585.325-1.26.485-2.03.485zm-.016-1.5c.645 0 1.133-.207 1.469-.625.343-.414.515-1.04.515-1.875 0-.82-.171-1.445-.515-1.875-.344-.438-.828-.656-1.453-.656-.637 0-1.125.218-1.47.656-.343.43-.515 1.055-.515 1.875 0 .836.164 1.46.5 1.875.344.418.832.625 1.469.625zm0 0"
    transform="translate(199.926 22.969)"
  ></path>
  <g clipPath="url(#id1)">
    <path
      fill="#aaa"
      d="M10.094-7.875c.875 0 1.52.262 1.937.781.426.524.64 1.313.64 2.375V0h-1.89v-4.656c0-.602-.101-1.04-.297-1.313-.199-.27-.527-.406-.984-.406-.523 0-.934.188-1.234.563-.305.367-.454.875-.454 1.53V0H5.907v-4.656c0-.594-.105-1.024-.312-1.297-.2-.281-.524-.422-.969-.422-.531 0-.95.188-1.25.563-.305.367-.453.875-.453 1.53V0h-1.89v-5.5c0-.813-.044-1.535-.126-2.172h1.781l.141 1.203c.219-.445.535-.789.953-1.031.426-.25.914-.375 1.469-.375 1.176 0 1.941.484 2.297 1.453a2.67 2.67 0 011.031-1.062 3.03 3.03 0 011.516-.391zm0 0"
      transform="translate(209.532 22.969)"
    ></path>
  </g>
</svg>
